<svg width="60" height="60" fill="none" xmlns="http://www.w3.org/2000/svg"><path fill-rule="evenodd" clip-rule="evenodd" d="M30 60C13.43 60 0 46.57 0 30S13.43 0 30 0s30 13.43 30 30-13.43 30-30 30Zm13.01-40.78c-2.4-1.76-5.21-2.87-8.16-3.22l-.39.77c2.92.61 5.6 2.02 7.77 4.06A23.984 23.984 0 0 0 30 17.61c-5.7 0-9 1.61-12.3 3.28a15.59 15.59 0 0 1 7.77-4.06l-.39-.83c-2.95.35-5.76 1.46-8.16 3.22 0 0-4.21 6.05-4.92 17.89C16.21 41.94 22.62 42 22.62 42l1.36-1.8a16.35 16.35 0 0 1-7.06-4.7c2.66 2 6.6 4.06 13.08 4.06s10.42-2.06 13.07-4.06c-1.9 2.16-4.33 3.78-7.05 4.7l1.36 1.8s6.41-.06 10.61-4.89c-.84-11.84-4.98-17.89-4.98-17.89Zm-7.77 14.61c-1.78.22-3.4-1.05-3.61-2.83-.21-1.78 1.05-3.4 2.83-3.61a3.235 3.235 0 0 1 3.63 3.22 3.095 3.095 0 0 1-2.85 3.22Zm-10.61 0c-1.78.22-3.4-1.04-3.62-2.81a3.243 3.243 0 0 1 2.81-3.62c1.78-.22 3.4 1.04 3.62 2.81.02.13.03.27.03.4.1 1.67-1.17 3.11-2.84 3.22Z" fill="#393632"/></svg>